<?xml version="1.0" standalone="no"?>
<!DOCTYPE svg PUBLIC "-//W3C//DTD SVG 20010904//EN"
 "http://www.w3.org/TR/2001/REC-SVG-20010904/DTD/svg10.dtd">
<svg version="1.0" xmlns="http://www.w3.org/2000/svg"
 width="1000.000000pt" height="1000.000000pt" viewBox="0 0 1000.000000 1000.000000"
 preserveAspectRatio="xMidYMid meet">
<metadata>
Created by potrace 1.11, written by Peter Selinger 2001-2013
</metadata>
<g transform="translate(0.000000,1000.000000) scale(0.100000,-0.100000)"
fill="#000000" stroke="none">
<path d="M2042 8837 c-18 -5 -48 -24 -66 -41 -30 -28 -276 -445 -276 -467 0
-5 -4 -9 -10 -9 -5 0 -10 -5 -10 -11 0 -5 -25 -54 -56 -107 -31 -53 -68 -117
-82 -142 -14 -25 -48 -85 -76 -135 -29 -49 -55 -97 -59 -105 -4 -8 -15 -28
-25 -45 -10 -16 -30 -50 -44 -75 -31 -55 -47 -84 -128 -225 -71 -124 -95 -168
-135 -240 -15 -27 -30 -54 -35 -60 -4 -5 -21 -35 -38 -65 -16 -30 -73 -131
-126 -223 -53 -92 -96 -170 -96 -173 0 -3 -13 -25 -30 -49 -16 -24 -30 -47
-30 -50 0 -4 -24 -48 -54 -98 -29 -51 -58 -108 -65 -127 -36 -113 25 -432 120
-622 118 -237 338 -458 570 -573 l57 -28 0 -1921 c0 -1786 1 -1924 17 -1963
19 -48 68 -96 122 -118 32 -13 437 -15 3527 -13 3340 3 3492 4 3523 21 18 10
44 32 58 49 59 70 55 -71 55 2023 l0 1922 52 24 c158 73 362 247 473 404 149
209 235 476 231 710 l-2 90 -108 190 c-60 105 -120 210 -134 235 -14 25 -36
62 -49 82 -12 21 -23 39 -23 41 0 2 -23 44 -51 93 -29 49 -63 109 -77 134 -14
25 -42 74 -62 110 -21 36 -113 198 -205 360 -145 255 -223 392 -308 540 -11
19 -31 55 -45 80 -22 41 -59 106 -105 185 -9 17 -53 93 -96 170 -93 163 -113
188 -172 215 -44 19 -67 20 -2969 19 -2024 -1 -2935 -4 -2958 -12z"/>
</g>
</svg>
